<?xml version="1.0"?>
<svg width="128" height="128" xmlns="http://www.w3.org/2000/svg" xmlns:svg="http://www.w3.org/2000/svg" data-name="Layer 1">

 <title>icon_DataGrip</title>
 <g class="layer" display="inline">
  <title>Layer 1</title>
  <path d="m119.8,19.8l8.2,52.4l-31,18.2l-6,-29.8l28.8,-40.8z" fill="#bfbfbf" id="svg_1" transform="matrix(1 0 0 1 0 0)"/>
  <path d="m119.8,19.8l-45.8,-19.8l-38.4,32l55.4,28.6l28.8,-40.8z" fill="#ffffff" id="svg_2"/>
  <path d="m86.4,128l-53.4,-72.2l-16,10.8l-15.8,47.6l85.2,13.8z" fill="#ffffff" id="svg_3" transform="matrix(1 0 0 1 0 0)"/>
  <path d="m96.6,91.6l-37.6,-24.6l-59,-8l86.4,69l10.2,-36.4z" fill="#bfbfbf" id="svg_4" transform="matrix(1 0 0 1 0 0)"/>
  <path d="m0,0.8l0,58.2l111,38.2l8.8,-77.4l-119.8,-19z" fill="#7f7f7f" id="svg_5" transform="matrix(1 0 0 1 0 0)"/>
  <g id="svg_6">
   <g fill="#fff" id="svg_8">
    <path d="m32.11,34.4l12.89,0c10.41,0 17.61,7.15 17.61,16.47l0,0.13c0,9.32 -7.19,16.56 -17.61,16.56l-12.89,0l0,-33.16zm7.29,6.6l0,20l5.6,0c6,0 10,-4 10,-9.89l0,-0.11c0,-5.87 -4,-10 -10,-10l-5.6,0zm24.53,10.06l0,-0.06a17,17 0 0 1 17.37,-17.17c6,0 9.56,1.61 13,4.54l-4.59,5.54a12.2,12.2 0 0 0 -8.66,-3.36c-5.3,0 -9.51,4.68 -9.51,10.32l0,0.13c0,6.06 4.16,10.51 10,10.51a11.63,11.63 0 0 0 6.86,-2l0,-4.76l-7.29,0l0,-6.29l14.39,0l0,14.38a21.5,21.5 0 0 1 -14.15,5.26c-10.35,0 -17.42,-7.24 -17.42,-17.04zm-32.57,37.93l30,0l0,5l-30,0l0,-5z" fill="#000000" id="svg_9"/>
   </g>
  </g>
 </g>
</svg>