<?xml version="1.0" encoding="UTF-8"?>
<svg width="24px" height="24px" viewBox="0 0 24 24" version="1.1" xmlns="http://www.w3.org/2000/svg">
    <g stroke="none" stroke-width="1" fill="none" fill-rule="evenodd">
        <!-- Microphone -->
        <path d="M12,2 C13.66,2 15,3.34 15,5 L15,11 C15,12.66 13.66,14 12,14 C10.34,14 9,12.66 9,11 L9,5 C9,3.34 10.34,2 12,2 Z" fill="#4F46E5"/>
        
        <!-- Sound waves -->
        <path d="M17,11 C17,14.53 14.39,17.44 11,17.93 L11,21 L13,21 C13.55,21 14,21.45 14,22 C14,22.55 13.55,23 13,23 L11,23 L7,23 C6.45,23 6,22.55 6,22 C6,21.45 6.45,21 7,21 L9,21 L9,17.93 C5.61,17.44 3,14.53 3,11 L3,9 C3,8.45 3.45,8 4,8 C4.55,8 5,8.45 5,9 L5,11 C5,13.76 7.24,16 10,16 L14,16 C16.76,16 19,13.76 19,11 L19,9 C19,8.45 19.45,8 20,8 C20.55,8 21,8.45 21,9 L21,11 L17,11 Z" fill="#4F46E5"/>
        
        <!-- Flow lines -->
        <path d="M7,8 C6.45,8 6,7.55 6,7 L6,5 C6,4.45 6.45,4 7,4 C7.55,4 8,4.45 8,5 L8,7 C8,7.55 7.55,8 7,8 Z" fill="#818CF8"/>
        <path d="M17,8 C16.45,8 16,7.55 16,7 L16,5 C16,4.45 16.45,4 17,4 C17.55,4 18,4.45 18,5 L18,7 C18,7.55 17.55,8 17,8 Z" fill="#818CF8"/>
    </g>
</svg> 