<?xml version="1.0"?>
<svg width="200" height="200" xmlns="http://www.w3.org/2000/svg" xmlns:svg="http://www.w3.org/2000/svg">
 <g class="layer">
  <title>Layer 1</title>
  <path d="m68.96,129.03c-3.93,-2.66 -6.66,-6.54 -8.14,-11.67l9.13,-3.77c0.83,3.16 2.27,5.61 4.34,7.34c2.05,1.74 4.55,2.6 7.47,2.6c2.99,0 5.56,-0.91 7.7,-2.73s3.23,-4.13 3.23,-6.93c0,-2.87 -1.14,-5.21 -3.4,-7.03s-5.1,-2.72 -8.5,-2.72l-5.28,0l0,-9.04l4.74,0c2.92,0 5.38,-0.79 7.38,-2.37s3,-3.74 3,-6.49c0,-2.44 -0.89,-4.39 -2.68,-5.85s-4.05,-2.2 -6.8,-2.2c-2.69,0 -4.82,0.71 -6.4,2.15s-2.72,3.19 -3.45,5.27l-9.04,-3.76c1.2,-3.39 3.4,-6.39 6.62,-8.99c3.23,-2.59 7.34,-3.89 12.34,-3.89c3.7,0 7.03,0.71 9.98,2.14c2.95,1.44 5.26,3.42 6.93,5.95c1.67,2.54 2.5,5.38 2.5,8.54c0,3.22 -0.77,5.95 -2.33,8.18s-3.46,3.95 -5.72,5.15l0,0.54a17.38,17.38 0 0 1 7.34,5.72c1.91,2.57 2.87,5.63 2.87,9.21s-0.91,6.78 -2.72,9.58s-4.33,5.01 -7.52,6.62c-3.19,1.6 -6.79,2.42 -10.77,2.42c-4.62,0.01 -8.89,-1.32 -12.82,-3.97zm56.04,-45.32l-9.97,7.25l-5.02,-7.6l17.99,-12.98l6.9,0l0,61.2l-9.9,0l0,-47.87z" fill="#000000" id="svg_2"/>
  <path d="m152.63,200l47.37,-47.37l-23.68,-10.52l-23.69,10.52l-10.52,23.69l10.52,23.68z" fill="#bfbfbf" id="svg_3"/>
  <path d="m36.84,176.32l10.53,23.68l105.26,0l0,-47.37l-105.26,0l-10.53,23.69z" fill="#7f7f7f" id="svg_4" transform="matrix(1 0 0 1 0 0)"/>
  <path d="m15.79,0c-8.72,0 -15.79,7.07 -15.79,15.79l0,136.84l23.68,10.53l23.69,-10.53l0,-105.26l105.26,0l10.53,-23.69l-10.53,-23.68l-136.84,0z" fill="#000000" id="svg_5"/>
  <path d="m0,152.63l0,31.58c0,8.73 7.07,15.79 15.79,15.79l31.58,0l0,-47.37l-47.37,0z" fill="#000000" id="svg_6" transform="matrix(1 0 0 1 0 0)"/>
  <path d="m152.63,47.37l0,105.26l47.37,0l0,-105.26l-23.68,-10.53l-23.69,10.53z" fill="#7f7f7f" id="svg_7" transform="matrix(1 0 0 1 0 0)"/>
  <path d="m200,47.37l0,-31.58c0,-8.72 -7.07,-15.79 -15.79,-15.79l-31.58,0l0,47.37l47.37,0z" fill="#3f3f3f" id="svg_8"/>
 </g>
</svg>