<?xml version="1.0"?>
<svg width="2048" height="2048" xmlns="http://www.w3.org/2000/svg" xmlns:svg="http://www.w3.org/2000/svg" enable-background="new 0 0 2048 2048" version="1.1" xml:space="preserve">
 <g class="layer">
  <title>Layer 1</title>
  <path d="m1400.02,1693.84c-0.83,0.06 -1.66,0.15 -2.49,0.15c-124.97,0 -249.94,-0.01 -375.35,-0.55c-0.43,-97.13 -0.42,-193.72 0.07,-290.37c119.98,-0.06 239.47,-0.02 358.96,-0.16c9.85,-0.01 19.73,-0.97 29.56,-1.96c16.64,-1.67 32.38,-6.82 47.52,-13.72c22.57,-10.28 42.37,-24.34 59.06,-42.9c9.58,-10.65 17.9,-22.07 24.66,-34.62c10.83,-20.11 17.64,-41.42 20.21,-64.27c1.75,-15.5 1.84,-30.92 -0.46,-46.14c-3.46,-22.96 -10.97,-44.71 -22.88,-64.85c-11.35,-19.19 -25.74,-35.77 -42.9,-49.8c-14.07,-11.51 -29.94,-20.2 -46.8,-27c-13.16,-5.32 -26.77,-9.02 -40.89,-10.64c-8.29,-0.94 -16.6,-1.72 -25.1,-2.6c-0.06,-0.54 -0.17,-1.18 -0.18,-1.81c-0.34,-20.6 -0.42,-41.2 -1.12,-61.78c-0.34,-9.81 -1.87,-19.58 -2.87,-29.36c-2.12,-20.81 -7.35,-40.95 -13.78,-60.75c-7.91,-24.32 -18.3,-47.54 -31.14,-69.73c-15.69,-27.1 -34.75,-51.55 -56.61,-73.82c-8.4,-8.55 -17.77,-16.15 -26.55,-24.5c2.66,-2.91 5.14,-5.53 7.69,-8.09c18.91,-18.93 37.84,-37.84 56.75,-56.76c8.18,-8.17 16.35,-16.35 24.53,-24.52c35.78,-35.79 71.57,-71.57 107.34,-107.36c2.31,-2.31 4.5,-4.73 7.06,-6.95c7.05,6.22 14.11,11.97 20.46,18.42c11.15,11.33 22.25,22.74 32.66,34.73c12.46,14.33 24.4,29.13 36.16,44.04c22.57,28.59 41.15,59.77 57.86,92.02c8.29,16.01 15.41,32.63 22.55,49.2c10.13,23.55 18.62,47.71 25.05,72.56c0.96,3.71 2.81,6.58 6.22,8.84c20.81,13.8 39.94,29.76 57.93,47.02c16.91,16.22 32.32,33.8 46.68,52.37c15.69,20.29 29.57,41.71 41.75,64.19c15.22,28.07 27.23,57.56 36.31,88.17c8.63,29.09 14.86,58.69 17.1,89.04c0.35,4.82 1.19,9.6 1.81,14.4c0.04,20.37 0.08,40.74 -0.29,61.81c-1.46,11.48 -2.02,22.34 -3.67,33.02c-2.45,15.91 -5.19,31.8 -8.7,47.5c-5.57,24.9 -13.94,48.9 -23.97,72.4c-9.72,22.79 -21.1,44.66 -34.16,65.65c-14.7,23.64 -31.35,45.92 -50.4,66.18c-13.26,14.11 -27.68,27.16 -42.02,40.2c-16.58,15.07 -34.86,27.92 -53.73,40.01c-23.93,15.31 -49.01,28.41 -75.35,38.83c-32.04,12.67 -64.99,22.38 -99.23,27.58c-20.49,3.12 -40.94,5.84 -61.7,5.88c-1.2,0 -2.4,0.52 -3.61,0.8z" fill="#000000" id="svg_2" opacity="1"/>
  <path d="m193.16,1256c-0.04,-20.36 -0.09,-40.72 0.29,-61.78c0.8,-7.62 0.61,-14.63 1.67,-21.45c2.64,-17.02 5.53,-34.01 8.91,-50.9c6.93,-34.62 18.89,-67.57 33.91,-99.45c10.96,-23.25 23.46,-45.69 38.74,-66.34c13.02,-17.59 26.52,-34.95 41.22,-51.13c22.17,-24.42 46.84,-46.28 74.42,-65.08c1.63,-0.75 2.97,-1.42 4.18,-2.26c26.99,-18.8 55.71,-34.42 86.1,-46.98c32.34,-13.36 65.56,-23.81 100.27,-28.62c21.56,-2.98 43.25,-5.7 64.97,-6.71c17.82,-0.83 35.77,0.77 53.64,1.78c10.72,0.61 21.4,2.02 32.07,3.33c7.53,0.92 15,2.29 22.91,3.51c14.53,3.62 28.81,6.63 42.74,10.83c35.33,10.66 68.87,25.48 100.77,44.15c30.13,17.65 58.05,38.26 83.31,62.22c15.1,14.31 28.7,30.21 42.79,45.57c3.46,3.78 6.22,8.2 8.66,11.47c-70.47,70.47 -140.41,140.41 -210.42,210.41c-6.91,-14.16 -14.98,-28.12 -25.65,-40.59c-15.32,-17.92 -32.84,-33 -53.72,-43.93c-21.04,-11.02 -43.31,-17.96 -67.14,-20.22c-15.74,-1.49 -31.37,-1.31 -46.8,1.38c-21.34,3.72 -41.59,10.91 -60.47,21.83c-23.62,13.67 -43.1,31.73 -58.54,54.16c-11.3,16.41 -19.79,34.22 -24.88,53.47c-2.66,10.01 -4.86,20.26 -5.89,30.55c-1,9.92 -0.82,20.06 -0.06,30.02c0.8,10.36 2.19,20.79 4.58,30.9c5.46,23.1 15.44,44.33 29.56,63.41c10.38,14.01 22.06,27.01 36.67,36.79c11.03,7.39 22.64,13.91 33.88,21.13c-0.78,1.05 -1.42,1.81 -2.13,2.52c-68.33,68.35 -136.67,136.69 -205.02,205.03c-0.82,0.81 -1.75,1.52 -2.97,2.14c-12.74,-10.57 -25.43,-20.68 -37.42,-31.57c-8.45,-7.66 -16.24,-16.12 -23.78,-24.7c-9.48,-10.81 -18.86,-21.77 -27.45,-33.3c-9.11,-12.21 -17.55,-24.96 -25.72,-37.83c-16.63,-26.23 -30.14,-54.1 -40.19,-83.45c-6.9,-20.15 -13.04,-40.66 -17.85,-61.4c-4.03,-17.39 -5.68,-35.33 -8.3,-53.03c-0.77,-5.27 -1.24,-10.58 -1.86,-15.88z" fill="#000000" id="svg_3" opacity="1"/>
  <path d="m756.04,763.87c-7.49,-1.17 -14.96,-2.54 -22.49,-3.46c-10.67,-1.31 -21.35,-2.72 -32.07,-3.33c-17.87,-1.01 -35.82,-2.61 -53.64,-1.78c-21.72,1.01 -43.41,3.73 -64.97,6.71c-34.71,4.81 -67.93,15.26 -100.27,28.62c-30.39,12.56 -59.11,28.18 -86.1,46.98c-1.21,0.84 -2.55,1.51 -4.15,1.88c2.95,-10.94 5.89,-21.61 9.57,-32.02c5.71,-16.11 11.82,-32.08 17.94,-48.04c10.78,-28.16 24.55,-54.92 39.55,-80.98c15.41,-26.76 32.18,-52.74 52.14,-76.42c15.28,-18.13 30.44,-36.43 46.83,-53.52c13.46,-14.03 28.31,-26.81 43.19,-39.37c14.13,-11.92 28.54,-23.67 43.84,-33.99c20.53,-13.87 41.57,-27.13 63.25,-39.11c20.56,-11.37 41.84,-21.65 63.51,-30.73c20.82,-8.73 42.4,-15.8 63.94,-22.68c15.63,-4.99 31.59,-9.23 47.68,-12.43c20.81,-4.13 41.84,-7.33 62.88,-10.1c15.63,-2.06 31.44,-2.77 47.17,-4.12c1.73,-0.15 3.43,-0.54 5.15,-0.82c17.03,-0.04 34.06,-0.09 51.81,0.27c15.51,1.46 30.34,2.06 45.06,3.68c16.4,1.8 32.74,4.22 49.01,6.95c24.74,4.16 48.99,10.42 72.95,17.83c27.58,8.53 54.49,18.75 80.63,30.98c26.37,12.33 52.02,26.07 76.12,42.39c18.51,12.53 36.52,25.84 54.32,39.37c8.87,6.74 16.77,14.76 25.11,22.2c-2.25,2.37 -4.44,4.79 -6.75,7.1c-35.77,35.79 -71.56,71.57 -107.34,107.36c-8.18,8.17 -16.35,16.35 -24.53,24.52c-18.91,18.92 -37.84,37.83 -56.75,56.76c-2.55,2.56 -5.03,5.18 -7.98,7.94c-6.03,-4.08 -11.6,-8.37 -17.23,-12.58c-19.74,-14.71 -41.29,-26.41 -63.66,-36.39c-22.17,-9.9 -45.28,-17.39 -69.15,-22.21c-19.95,-4.04 -40.05,-7.27 -60.47,-7.27c-14.43,0.01 -28.87,0.43 -43.29,1.01c-7.71,0.31 -15.51,0.69 -23.05,2.17c-16.29,3.2 -32.52,6.77 -48.61,10.84c-22.36,5.66 -43.62,14.5 -64.06,25.03c-22.11,11.37 -43.04,24.67 -62.41,40.43c-15.24,12.42 -29.83,25.42 -42.68,40.33z" fill="#7f7f7f" id="svg_4" opacity="1" transform="matrix(1 0 0 1 0 0)"/>
  <path d="m376.07,1597.3c0.88,-0.76 1.81,-1.47 2.63,-2.28c68.35,-68.34 136.69,-136.68 205.02,-205.03c0.71,-0.71 1.35,-1.47 2.49,-2.47c3.95,1.18 7.41,2.67 10.92,4.04c21.92,8.54 44.64,11.63 68.16,11.57c116.83,-0.29 233.66,-0.13 350.48,-0.12c2,0 4,0.08 5.99,0.12c0,96.59 -0.01,193.18 -0.07,290.23c-1.21,0.52 -2.37,0.63 -3.53,0.63c-123.76,0 -247.52,0 -372,-0.4c-17.47,-1.79 -34.22,-2.99 -50.93,-4.61c-23.22,-2.26 -45.82,-7.82 -68.08,-14.5c-43.44,-13.03 -84.34,-31.79 -122.34,-56.61c-9.86,-6.44 -19.17,-13.69 -28.74,-20.57z" fill="#bfbfbf" id="svg_6" opacity="1" transform="matrix(1 0 0 1 0 0)"/>
 </g>
</svg>