<?xml version="1.0"?>
<svg width="800" height="600" xmlns="http://www.w3.org/2000/svg" xmlns:svg="http://www.w3.org/2000/svg" enable-background="new 0 0 800 600" version="1.0" xml:space="preserve">
 <style type="text/css">.st0{fill:#009FE3;}</style>
 <g class="layer">
  <title>Layer 1</title>
  <g id="svg_1">
   <path d="m170.7,306.6c-5,-1 -10,-1.9 -15.5,-2c-6.3,-0.1 -41.8,0 -53.9,0c-4.5,0 -7.4,4.5 -7.5,8.9c0,9.7 0,26.2 0,35.1l0,44.5l0.1,44.4c0,8.9 0,25.4 0,35.1c0,4.4 3,7.6 7.5,7.8c15.1,0.6 40.3,0.6 53.7,0.8c5.2,0 10.5,-0.6 15.6,-1.8c28.9,-6 42.1,-23.9 42.1,-46.6l0,-14.5c0,-9.4 -2.9,-15.8 -5.5,-18.8c-3.1,-3.6 -6.6,-5.3 -12.4,-6.5c4.7,-0.2 9.2,-2.3 12.4,-5.7c2.8,-2.8 5.5,-10.2 5.5,-19.6l0,-14.5c0,-22.8 -13.2,-40.7 -42.1,-46.6zm-5.6,105l-0.2,20.6c0,0 0.2,11.6 -11.9,11.6l-9.3,0c-0.6,0 -1.2,-0.5 -1.2,-1.1c0,0 0,0 0,0l0,-10.1l0.2,-20.2c0,-0.6 -0.1,-6.3 -0.2,-8.8c0,-0.7 0.5,-1.2 1.2,-1.2c0,0 0,0 0,0l10,0c11.4,0 11.5,8.1 11.4,9.2l0,0zm-11.3,-27.7l-10.3,0c-0.7,0 -1.2,-0.6 -1.2,-1.2c0.1,-2.6 0.2,-7.1 0.2,-7.7l-0.2,-20.8l0,-10.4c0,-0.7 0.6,-1.2 1.2,-1.2l9.6,0c12.4,0 12.2,12.1 12.2,12.1l0.2,19.9c0,1 0,9.3 -11.7,9.3zm-9.7,-94.5c2,0.4 9.6,1.2 9.6,1.2c12.7,0.8 46,0 46,0c8.1,0 12.3,-4.1 12.3,-9.5l-0.3,-77.2c0,-8.1 -1,-9.8 -6.4,-9.8l-48.5,0c-2.6,0 -4.5,3.2 -4.6,7.2l0,17.4c0.1,2.9 2.4,5.2 5.3,5.2l6.2,0c3.4,0 6.2,2.8 6.2,6.2l0,17.1c0,2.5 -0.4,3.6 -1.4,4.6c-1.7,1.6 -6.7,2.2 -10.3,2.2c-3.4,0 -7.5,-0.9 -10,-2.9c-3.7,-3.1 -5,-8.3 -5,-11c0,-0.6 -0.2,-63 -0.2,-75.2c0,-0.2 0,-0.5 0,-0.7c0,-0.1 0,-0.3 0,-0.4c0,-6.1 5,-11.1 11.1,-11.1c3.2,0 6.3,1.4 8.4,3.9l0,0.1c1.7,2 2.7,4.6 2.6,7.2c0,0.2 0,0.5 0,0.7s0,0.5 0,0.7l0,6.3c0,2.8 2.3,5.1 5.1,5.1c0,0 0,0 0,0l36.3,0.1c2.8,0.1 5.2,-2.1 5.3,-4.9c0,-0.1 0,-0.3 0,-0.4l-0.3,-7.8c-0.2,-21.9 -15.6,-41.4 -44.8,-47.6c-4.9,-1.1 -9.8,-1.7 -14.8,-1.8c-5.7,0 -11.3,0.6 -16.9,1.9c-18.3,3.6 -40.9,23.4 -40.7,42.9l0,82.4c0.6,22.3 21.2,42.4 49.8,47.9zm211.7,-47.1c0,13.5 0.2,28 0.2,37.6c0,7.8 2.2,10.8 11,10.8c24.5,0 62.5,0.2 83.5,0.2c5.6,0 7.7,-3.2 7.7,-7.7l0,-30c0,-8.9 -1.7,-10.9 -11.1,-10.9l-17.6,0c-3.5,0 -13.9,0.3 -18.2,0.4c-1,0 -1.9,-0.8 -1.9,-1.8c0,0 0,0 0,-0.1l0,-77.1c0,-0.5 0.1,-1 0.1,-1.5l0,-38.2c0,-4.6 -2.1,-8 -7.8,-8c-10.5,0 -29,0 -38.2,-0.1c-4.5,0 -7.8,3.6 -7.8,8c-0.1,8.9 -0.2,23.9 -0.1,36.5l0.2,81.9zm207.8,189.7l-17.6,0c-3.6,0 -14,0.3 -18.4,0.4c-1,0 -1.9,-0.8 -1.9,-1.8c0,0 0,-0.1 0,-0.1l0,-77.5c0,-0.5 0.1,-1 0.1,-1.5l0,-38.5c0,-4.6 -2.1,-8 -7.9,-8c-10.5,0 -29.2,0 -38.4,-0.1c-4.5,0 -7.9,3.6 -7.9,8c-0.1,8.9 -0.2,24 -0.1,36.7l0.3,82.3c0,13.5 0.2,28.2 0.2,37.8c0,7.8 2.2,10.9 11.1,10.9c24.6,0 62.8,0.2 84,0.2c5.6,0 7.7,-3.3 7.7,-7.7l0,-30.1c0,-9 -1.8,-11 -11.2,-11zm142,-119.1c0,-4.5 -3.5,-8 -10.5,-8l-33.6,0c-5,0 -7,3.4 -7,8l0.1,54.4c0,1.5 0,9.7 -5,13.3l0,0c0,0 -0.1,0.1 -0.1,0.1c-1.6,1.1 -3.5,1.6 -5.5,1.6c-2.5,0.1 -4.8,-0.9 -6.5,-2.7l-0.4,-0.4c-1,-1.2 -1.7,-2.6 -2.2,-4.1c-0.9,-2.9 -1.3,-6 -1.2,-9l-0.2,-53.1c0,-4.6 -2.1,-8 -6.9,-8l-37.6,0c-5.2,0 -7.2,3.4 -7.2,8c0,10.3 0,54.4 0,54.4c1.5,23.3 21.2,33.4 46,33.4l26.4,0l0,19l0,3.8l0.1,6.1c0,0.2 0,0.4 0,0.8c-0.1,3 -1.1,12 -10.6,12c-3.5,0 -7.8,0.7 -10.8,-5c-1.6,-2.9 -1.9,-10.7 -2.3,-13.6c-0.2,-2.3 -2.3,-4.1 -4.6,-4c0,0 -26.5,-0.1 -38.7,-0.1c-4.2,0 -5.5,0.7 -5.5,5l0,0c1.6,33.3 22,54 52,59.5c5.2,1 10.6,1.4 15.9,1.3c0.5,0 1,0 1.5,0c30.7,-1 54.6,-20.3 54.6,-43.3l0,-86.6c0.1,-8.7 -0.2,-30.8 -0.2,-42.8zm-233.9,-71c0,7.1 -0.1,24.5 -0.1,36.4c0,6.4 5.9,12.3 12.5,12.4c7.4,0.1 17,0.1 25.8,0.1c5.3,0 25.9,0.5 31.4,0.5c0.8,0 1.6,0 2.4,-0.1c30.6,-1.3 51.9,-20.2 51.9,-42.5l0,-84.4c0,-21.8 -17.9,-40.4 -46.8,-46.5c-5.1,-1.1 -10.4,-1.7 -15.6,-1.8c-6.3,-0.1 -15.6,-0.3 -21.5,-0.2c-8.5,0.1 -22.3,0 -31.2,0c-5.1,0 -8.8,3.6 -8.9,8.6c-0.1,10.5 -0.2,27.6 -0.2,35.2l0.3,82.3zm49.2,-88.5c0,-0.7 0.6,-1.2 1.2,-1.2l9.1,0c11.8,0 11.6,11.6 11.6,11.6l0.2,74.7c0.1,1.9 0,15.2 -11.1,15.2c-2.1,0 -7,0.1 -9.2,0.1c-0.6,0 -1.2,-0.5 -1.2,-1.1c0,0 0,0 0,0c-0.1,-3.6 -0.3,-14.4 -0.3,-15.4l-0.2,-46.3l-0.1,-27.6l0,-10zm-73.5,278.6l-17.7,0c-3.6,0 -14,0.3 -18.4,0.4c-1,0 -1.9,-0.8 -1.9,-1.8c0,0 0,-0.1 0,-0.1l0,-77.5c0,-0.5 0.1,-1 0.1,-1.5l0,-38.5c0,-4.6 -2.1,-8 -7.9,-8c-10.5,0 -29.2,0 -38.4,-0.1c-4.5,0 -7.9,3.6 -7.9,8c-0.1,8.9 -0.2,24 -0.1,36.7l0.3,82.2c0,13.5 0.2,28.2 0.2,37.8c0,7.8 2.2,10.9 11.1,10.9c24.6,0 62.8,0.2 84,0.2c5.6,0 7.7,-3.3 7.7,-7.7l0,-30c0,-9 -1.7,-11 -11.1,-11zm-111.1,-10.6l-37,0c-4.6,0 -6.2,1.5 -6.1,6.1l0.1,4.5c0.1,5.5 -1.7,12.1 -10.4,12c-9.7,-0.1 -10.2,-8.8 -10.3,-11.8l-0.3,-24.3c-0.1,-4.5 3.3,-5.6 7.9,-5.6l57.3,0c4.6,0 6.1,-3.4 6.1,-8.4l0,-2.3l0,-4.3l-0.4,-34c-0.2,-22.3 -17.6,-42.3 -45.3,-48.5c-4.9,-1.1 -10,-1.7 -15,-1.8c-5.7,-0.1 -11.5,0.5 -17,1.9c-24.4,5.9 -42.5,23.6 -42.3,43.3l0,84.5c0.2,14.4 10.1,27.7 23.1,37.1c8.5,6 18.2,10 28.4,11.9c5.1,1 10.2,1.4 15.3,1.3c0.8,0 1.5,0 2.3,0c29.3,-1.3 51.2,-22.3 51,-45.1l0,-9.1c-0.1,-5.7 -2.6,-7.4 -7.4,-7.4l0,0zm-64.1,-66.9c0,-1.5 0.2,-3 0.6,-4.5c1,-3.2 3.5,-7.7 9.4,-7.7c6.2,0 8.8,4 10,7.2c0.6,1.8 0.9,3.6 0.9,5.5l0.1,27.3c0,1.1 -1.4,1.9 -3.3,1.9l-12.8,0c-2.5,0 -4.8,-1.2 -4.8,-2.6l-0.1,-27.1zm25.7,-238.8c-4.9,-1.1 -10,-1.8 -15.1,-1.9c-6.1,-0.1 -11.8,0.9 -17.2,1.9c-19.7,3.8 -42.1,23.9 -41.9,43.7l0,85.4c0,23.1 20.3,44.5 50.5,49c9.5,1.4 12.5,1.2 21.5,-0.2c28.5,-4.4 47.9,-28.6 47.9,-47.1l-0.4,-82.3c0,-22.3 -17.5,-42.4 -45.3,-48.5l0,0zm-4.5,132.4l0,0c-2.9,5.1 -9.3,6.8 -14.4,3.9c-1.8,-1 -3.2,-2.6 -4.2,-4.4c-0.7,-1.5 -1.1,-3.1 -1.1,-4.7c0,-0.1 0,-0.3 0,-0.4c-0.1,-1 -0.1,-1.8 -0.1,-2.2l-0.1,-38l0,-9.9l0,-28.9l0,-0.1c0,-0.1 0,-0.2 0,-0.3l0,0c0,-0.2 0,-0.4 0,-0.6c0,-5.8 4.7,-10.5 10.5,-10.5c2.7,0 5.3,1.1 7.3,2.9c2,1.8 3.2,4.4 3.3,7.2l0.1,40.2l0.1,35.9l0,0.1l0,3.1c0,0.1 0,0.2 0,0.4c0,0.4 0.1,0.8 0.1,1.2c-0.1,1.8 -0.6,3.5 -1.5,5.1l0,0z" fill="#000000" id="svg_2"/>
  </g>
 </g>
</svg>