<?xml version="1.0"?>
<svg width="118" height="118" xmlns="http://www.w3.org/2000/svg" xmlns:svg="http://www.w3.org/2000/svg">
 <g class="layer">
  <title>Layer 1</title>
  <g fill="#00a7e0" id="svg_1">
   <path d="m19.08,18.97c10.85,-11.43 26.47,-18.07 42.23,-18.02c0,8.03 0.01,16.07 0,24.1c-10.65,0.1 -21.21,5.22 -27.43,13.94c-7.85,10.55 -8.65,25.73 -1.93,37.04c5.83,10.4 17.51,16.86 29.36,16.92c0.01,8.03 0.01,16.07 0,24.1c-13.89,0.01 -27.7,-5.07 -38.18,-14.19c-12.38,-10.57 -19.99,-26.55 -20.14,-42.86c-0.36,-15.1 5.61,-30.17 16.09,-41.03zm42.98,29.59l51.94,0c0,17.36 0.01,34.72 -0.01,52.07c-7.97,-0.01 -15.95,-0.01 -23.92,0c-0.02,-9.35 0,-18.71 -0.01,-28.06c-9.33,-0.01 -18.66,-0.01 -27.99,0c-0.02,-8 -0.01,-16.01 -0.01,-24.01z" fill="#000000" id="svg_2"/>
  </g>
 </g>
</svg>