<?xml version="1.0"?>
<svg width="256" height="256" xmlns="http://www.w3.org/2000/svg" xmlns:svg="http://www.w3.org/2000/svg" enable-background="new 0 0 256 256" version="1.1" xml:space="preserve">
 <g class="layer" display="inline">
  <title>Layer 1</title>
  <path d="m257,180.53c-31.78,0.47 -63.56,0.47 -95.67,0.47c0,10.68 0,20.92 0,31.82c10.3,0 20.68,0 31.36,0c0,4.23 0,7.81 0,11.79c-42.35,0 -84.71,0 -127.38,0c0,-3.66 0,-7.24 0,-11.48c10.36,0 20.74,0 31.4,0c0,-10.89 0,-21.14 0,-32.13c-31.63,0 -63.2,0 -95.24,0c-0.47,-49.02 -0.47,-98.04 0,-147.53c85.49,-0.47 170.51,-0.47 255.53,-0.47c0,49.02 0,98.04 0,147.53m-12.67,-139.53c-78.38,0 -156.75,0 -235.05,0c0,44.39 0,87.97 0,131.68c79.97,0 159.67,0 239.19,0c0.24,-0.46 0.38,-0.6 0.38,-0.74c0.06,-42.65 0.08,-85.29 0.2,-127.94c0.01,-3.05 -1.59,-3.15 -4.72,-3z" fill="#757575" id="svg_2" opacity="1"/>
  <path d="m213.52,64.66c4.36,0.42 8.54,0.22 12.13,1.57c2.04,0.77 4.55,4.27 4.29,6.2c-0.41,3.13 -2.89,6 -4.72,8.84c-0.09,0.13 -3.18,-0.89 -3.59,-1.9c-2.51,-6.19 -7.22,-6.1 -12.59,-5c-18.83,3.85 -39.86,29.88 -39.9,48.99c-0.02,9.5 4.96,14 14.29,12.26c11.45,-2.13 21.44,-7.61 29.24,-16.1c2.88,-3.13 3.66,-8.33 4.95,-12.72c1.25,-4.28 5.14,-6.62 8.95,-4.61c3.37,1.78 1.57,4.53 0.94,7.02c-2.29,8.99 -4.86,17.92 -6.7,27c-0.77,3.79 0.3,7.92 0.02,11.85c-0.17,2.45 -0.84,5.16 -2.22,7.08c-0.62,0.84 -4.4,0.76 -5.25,-0.22c-1.64,-1.86 -3.18,-4.72 -3.04,-7.06c0.36,-5.76 1.69,-11.47 2.79,-18.18c-2.2,1.46 -3.74,2.47 -5.27,3.51c-8.93,6.03 -18.26,10.98 -29.47,10.82c-11,-0.14 -18.07,-7.08 -18.38,-18.09c-0.52,-18.19 7.99,-32.28 20.49,-44.38c9.13,-8.84 19.46,-15.65 33.04,-16.88z" fill="#676767" id="svg_5" opacity="1"/>
  <path d="m77.19,125.17c1.24,-3.86 -1.27,-5.26 -3.73,-6.23c-6.17,-2.44 -12.5,-4.49 -18.69,-6.89c-4.64,-1.79 -9.41,-3.46 -13.7,-5.91c-9.67,-5.51 -11.63,-18.52 -3.4,-25.95c12.59,-11.37 27.75,-14.66 44.14,-10.71c7.16,1.73 9.62,6.8 7.08,12.7c-0.76,1.75 -2.82,2.93 -4.74,4.82c-2.6,-9.94 -3.54,-10.5 -13.75,-10.81c-8.33,-0.24 -16.22,1.74 -23.19,6.45c-7.25,4.89 -7.21,12.53 0.47,16.7c5.19,2.83 11.1,4.33 16.65,6.53c5.39,2.14 11.04,3.87 16.01,6.75c7.8,4.51 9.03,11.89 2.95,18.41c-12.83,13.75 -29.17,18.54 -47.55,16.84c-1.99,-0.19 -4.59,-1.88 -5.44,-3.6c-0.73,-1.47 0.16,-4.33 1.28,-5.9c0.61,-0.84 3.32,-0.69 4.88,-0.26c14.01,3.86 32.47,-1.8 40.73,-12.94z" fill="#686868" id="svg_6" opacity="1"/>
  <path d="m129.17,94.86c5.26,2.93 10.23,5.64 15.11,8.49c4.83,2.82 4.92,4.58 0.96,8.22c-9.05,8.29 -18.02,16.67 -27.02,25.01c-0.74,0.68 -1.45,1.91 -2.21,1.93c-2.22,0.08 -4.45,-0.31 -6.68,-0.52c0.43,-1.89 0.25,-4.41 1.41,-5.57c7.41,-7.39 15.12,-14.47 22.72,-21.67c0.71,-0.66 1.31,-1.43 2.42,-2.65c-2.41,-1.81 -4.49,-3.71 -6.88,-5.08c-5.62,-3.22 -11.55,-5.94 -17.05,-9.34c-3.33,-2.06 -6.48,-4.7 -8.96,-7.7c-1.17,-1.41 -0.58,-4.29 -0.78,-6.5c1.94,0.48 4.17,0.5 5.78,1.51c7.05,4.41 13.92,9.11 21.18,13.87z" fill="#686868" id="svg_7" opacity="1"/>
 </g>
</svg>