<?xml version="1.0"?>
<svg width="741.7" height="964.6000000000001" xmlns="http://www.w3.org/2000/svg" xmlns:svg="http://www.w3.org/2000/svg">
 <linearGradient id="a" x1="0.55" x2="0.64" y1="0.7" y2="0.27">
  <stop offset="0" stop-color="#ff9700"/>
  <stop offset="0.53" stop-color="#f48e00"/>
  <stop offset="1" stop-color="#d06f00"/>
 </linearGradient>
 <g class="layer" display="inline">
  <title>Layer 1</title>
  <g fill-rule="evenodd" id="svg_1">
   <path d="m742.4,482.9c0,-11.2 -8.3,-17.7 -18.6,-14.5l-704.4,222.6c-10.3,3.2 -18.6,15 -18.6,26.2l0,227.5c0,11.2 8.3,17.7 18.6,14.5l704.4,-222.6c10.3,-3.2 18.6,-15 18.6,-26.2l0,-227.5z" fill="#000000" id="svg_2"/>
   <g fill="#ff9800" id="svg_3">
    <path d="m0.8,475.7c0,11.2 8.3,23 18.6,26.3l704.5,222.5c10.3,3.3 18.6,-3.2 18.6,-14.5l0,-227.4c0,-11.3 -8.3,-23 -18.6,-26.3l-704.5,-222.5c-10.3,-3.3 -18.6,3.2 -18.6,14.5l0,227.4z" fill="#000000" id="svg_4"/>
    <path d="m742.4,15.6c0,-11.3 -8.3,-17.8 -18.6,-14.5l-704.4,222.5c-10.3,3.2 -18.6,15 -18.6,26.2l0,227.5c0,11.2 8.3,17.7 18.6,14.5l704.4,-222.6c10.3,-3.2 18.6,-15 18.6,-26.2l0,-227.4z" fill="#000000" id="svg_5"/>
   </g>
  </g>
 </g>
</svg>