<?xml version="1.0"?>
<svg width="1018.8840000000001" height="1018.885" xmlns="http://www.w3.org/2000/svg" xmlns:svg="http://www.w3.org/2000/svg">
 <g class="layer" display="inline">
  <title>Layer 1</title>
  <rect fill="none" height="835.9" id="svg_7" stroke="#000000" stroke-width="40" transform="matrix(1 0 0 1 0 0) rotate(-10.1799 510.755 511.295)" width="836.36" x="92.57" y="93.34"/>
  <rect fill="none" height="835.9" id="svg_8" stroke="#000000" stroke-width="40" transform="matrix(1 0 0 1 0 0) rotate(-7.10653 527.656 492.985)" width="836.36" x="109.48" y="75.03"/>
  <rect fill="none" height="840.08" id="svg_9" stroke="#000000" stroke-width="40" transform="matrix(1 0 0 1 0 0) matrix(0.999962 -0.00867872 0.00867872 0.999962 -4.42437 4.42753)" width="830.69" x="92.59" y="91.96"/>
  <rect fill="none" height="835.9" id="svg_10" stroke="#000000" stroke-width="40" transform="rotate(-5.09475 531.177 507.27) matrix(0.96024 -0.00872931 0.00833396 1.00579 -189.594 -241.365)" width="836.36" x="325.92" y="332.83"/>
  <path d="m464.7,769.3c74.85,-17.95 77.72,-31.77 66.77,-89.74l-69.82,-369.4l-46.84,8.8c-98.91,17.95 -105.55,37.15 -113.26,120.8l-12.03,2.15c-3.95,-45.41 -10.23,-91 -16.69,-133.72l12.2,-2.16a33.92,33.92 0 0 0 19.57,12.75a75.92,75.92 0 0 0 24.59,-2.34l305.13,-57.43a35.9,35.9 0 0 0 32.13,-24.95l12.93,-1.62a1164.18,1164.18 0 0 0 30.15,127.08l-12.2,5.39c-34.29,-81.85 -64.98,-87.06 -129.24,-74.85l-67.13,12.74l69.82,370.83c10.95,57.44 17.95,69.29 97.83,58.16l1.97,10.59l-203.9,37.51l-1.98,-10.59z" id="svg_6"/>
  <rect fill="#000000" height="173.24" id="svg_11" stroke="#000000" transform="matrix(1 0 0 1 0 0)" width="46.48" x="106.75" y="763.93"/>
  <rect fill="none" height="87.32" id="svg_12" stroke="#000000" stroke-width="40" width="26.76" x="930.69" y="779.42"/>
 </g>
</svg>